<?xml version="1.0" encoding="UTF-8"?>
<svg id="Capa_1" data-name="Capa 1" xmlns="http://www.w3.org/2000/svg" viewBox="0 0 83.8 73.7">
  <defs>
    <style>
      .cls-1 {
        fill: #fff;
      }
    </style>
  </defs>
  <path class="cls-1" d="M74.4,5.2C70.3,1.9,65.2,0,60,0s-10.4,1.9-14.4,5.2c-1.3,1-2.4,2.2-3.3,3.2l-.4,.4-.4-.5c-3.2-3.8-7.1-6.4-11.5-7.5-2.3-.6-4.5-.9-6.6-.9C16.7,0,10.8,3,5.7,8.8-.9,16.5-1.8,27.2,3.3,36.8c3.5,6.4,8.4,11.6,13.2,16.2,7.1,6.8,14.8,12.7,22,18.2l3.4,2.6,3.4-2.6c6.7-5.1,13.7-10.6,20.2-16.5,4.1-3.8,8.9-8.4,12.7-14,2.2-3.2,4.8-7.6,5.4-13,1.1-9-2-16.6-9.2-22.5Zm3.5,21.8c-.5,4.2-2.6,7.8-4.4,10.5-3.4,5-7.9,9.4-11.8,13-6.3,5.8-13.2,11.1-19.8,16.2-7.8-5.9-14.9-11.5-21.5-17.8-4.5-4.3-9.1-9-12.1-14.7-4-7.5-3.3-15.7,1.7-21.6,4-4.6,8.3-6.8,13.4-6.8s3.4,.2,5.2,.7c3.2,.8,6.1,2.7,8.5,5.7l4.5,5.3,4.8-5.1c.8-.9,1.8-1.9,2.7-2.7,6.2-5.2,15.3-5.2,21.6,0,5.6,4.6,8,10.3,7.1,17.4Z"/>
</svg>