<?xml version="1.0" encoding="UTF-8"?>
<svg id="Capa_1" data-name="Capa 1" xmlns="http://www.w3.org/2000/svg" viewBox="0 0 827.5 850.4">
  <defs>
    <style>
      .cls-1 {
        fill: #fff;
      }
    </style>
  </defs>
  <path class="cls-1" d="M95.5,595.2c-11.1,16.1-16.7,42.4-16.7,78.9s4.2,54.1,12.5,72.1c8.3,18,19.3,30.8,32.9,38.6,13.6,7.7,28.3,11.6,44.1,11.6s25.2-2.6,34.7-7.7c9.5-5.1,16.2-10.4,20-16,3.9,2.6,6.9,6.7,9.1,12.1,2.2,5.4,3.3,10.2,3.3,14.2,0,6.7-3.6,14.1-10.9,22.1-7.3,8-17.8,14.8-31.6,20.4-13.8,5.5-30.8,8.3-51,8.3s-48.7-5.9-70.3-17.5c-21.7-11.7-39-29.4-52.1-53.3-13.1-23.8-19.6-53.7-19.6-89.7s5.9-63.3,17.6-86.4c11.7-23.1,28-40.6,49-52.4,20.9-11.8,45.2-17.8,72.8-17.8s13.9,.9,22.3,2.6c8.3,1.8,15.6,4.1,21.8,7,3-1.5,7-2.8,12-4.2,5-1.3,10.2-2.6,15.4-3.7,5.2-1.2,9.3-1.8,12.2-1.8,3.9,9.4,6.7,20.4,8.5,33.1,1.8,12.7,3,25.3,3.6,37.7,.6,12.4,.9,23,.9,31.8h-50.3c-2.4-19-7.6-34.5-15.8-46.5-8.2-12-18.8-18-31.8-18s-31.4,8-42.5,24.1Zm444.3,205.6c5.2,5.6,11.9,8.9,20.3,10.1v21.9c-3.9,5.6-9.3,9.3-16.5,11.2-7.1,1.9-14.5,2.8-22.3,2.8-19,0-33.5-3.1-43.6-9.4-10.1-6.3-17.5-14.7-22.3-25.2-4.8-10.5-8.9-22.1-12.5-34.6-2.1-8.5-4.7-17.2-7.8-26.3-3.1-9.1-6.8-17.1-10.9-24.1-4.2-7-9.2-11.5-15.1-13.6h-29.4v80.2c0,8.2,3,14,8.9,17.3,5.9,3.4,13.2,5,21.8,5,0,10.5-3.3,19.7-9.8,27.6h-111.7c-6.8-8.2-10.2-17.4-10.2-27.6,10.1,0,17.4-1.7,22-5,4.6-3.4,6.9-9.1,6.9-17.3v-206.1c0-8.2-2.4-14-7.1-17.3-4.8-3.4-12.2-5-22.3-5,0-5,.7-9.9,2.2-14.9,1.5-5,3.7-9.2,6.7-12.7,12.8,0,24.6-.2,35.6-.7,11-.4,21.1-.8,30.3-1.1,8-.6,16.1-1,24.3-1.3,8.2-.3,16.8-.4,26-.4,30.9,0,55.6,3.5,74.3,10.5,18.7,7,32.2,16.8,40.5,29.4,8.3,12.6,12.5,27.5,12.5,44.7s-5.6,38.1-16.9,51.3c-11.3,13.2-28.8,22.2-52.5,27.2,13.1,3.5,25.7,12.5,38.1,27,12.3,14.5,21.6,31.8,27.8,52,3.3,10.8,7.5,19,12.7,24.6Zm-83.5-177.6c0-18.1-4.3-31.9-12.9-41.4-8.6-9.5-22.6-14.2-41.8-14.2s-6.8,.2-11.4,.4c-4.6,.3-8.1,.7-10.5,1.3v113.1c2.1,.3,5.3,.5,9.8,.7,4.5,.2,7.7,.2,9.8,.2,18.1,0,32.1-5.6,42.1-16.7,9.9-11.1,14.9-25.6,14.9-43.4Zm362.6,100.8c-5.8-10.8-13.4-20.2-22.7-28.1-9.3-7.9-19.5-14.8-30.5-20.8-11-6-21.5-11.3-31.6-16-9.2-4.7-18-9.4-26.3-14.2-8.3-4.8-15.1-10.4-20.3-16.9-5.2-6.4-7.8-14.3-7.8-23.7s2.9-18.8,8.7-25.6c5.8-6.9,14.8-10.3,26.9-10.3s25.2,4.5,36.5,13.4c11.3,8.9,20,25.8,26.3,50.6h36.9v-6.6c0-9.6-.2-20.3-.7-32-.4-11.7-1.5-23-3.1-34-1.6-11-4.5-19.8-8.7-26.5l-37.8,11.4c-7.4-4.1-17-7-28.7-8.8-11.7-1.8-21.9-2.6-30.5-2.6-18.7,0-35.5,3.4-50.5,10.1-15,6.7-26.9,16.3-35.8,28.7-8.9,12.4-13.4,27.6-13.4,45.4s7.6,44.9,22.7,61.2c15.1,16.2,35.8,30.6,61.9,43.2,10.1,4.7,20.1,9.9,30,15.6,9.9,5.7,18.2,12.1,24.7,19.1,6.5,7,9.8,15.3,9.8,25s-1.2,9.6-3.6,14.9c-2.4,5.3-6.2,9.7-11.4,13.4-5.2,3.7-12.4,5.5-21.6,5.5-18.7,0-35.1-7-49.2-21-14.1-14-23.5-33.5-28.3-58.3h-44.5c0,11.7,1,25,2.9,39.9,1.9,14.9,4.5,29.2,7.6,42.7,3.1,13.6,6.6,24.2,10.5,31.8l34.3-14.9c13.6,5.6,26.5,9.4,38.5,11.6,12,2.2,23.1,3.3,33.2,3.3,22,0,40.7-4,56.1-12.1,15.4-8,27.3-18.7,35.6-32,8.3-13.3,12.5-28,12.5-44.1s-2.9-27.3-8.7-38.1ZM499.6,200.5C495,5.4,303,0,303,0c134.7,61.1,63.1,269.9,63.1,269.9-49.1-121.1-133.8-48.4-133.8-48.4,42.3-20.2,62.2,14.9,86.7,88.6,42.6,128,130.4,106.3,130.4,106.3,0,0-58.7-44-37.1-135.4,22.7-96-5.1-180.5-5.1-180.5,0,0,34.8,30.3,32.8,183.8-1.5,114.7,155.2,188.8,155.2,188.8,0,0-90.8-72.4-95.6-272.7Zm-216.2,17.4c-3.3,.5-6.2-1.8-6.7-5.1-.5-3.2,1.8-6.2,5.1-6.7,3.2-.5,6.2,1.8,6.7,5.1s-1.8,6.2-5.1,6.7Z"/>
</svg>